<?xml version="1.0" encoding="UTF-8" standalone="no"?>
<!-- Created with Inkscape (http://www.inkscape.org/) -->

<svg
   version="1.1"
   id="svg1"
   width="320"
   height="320"
   viewBox="0 0 320 320"
   xmlns:xlink="http://www.w3.org/1999/xlink"
   xmlns="http://www.w3.org/2000/svg"
   xmlns:svg="http://www.w3.org/2000/svg">
  <defs
     id="defs1">
    <linearGradient
       id="linearGradient1">
      <stop
         style="stop-color:#ff8d09;stop-opacity:1;"
         offset="0"
         id="stop1" />
      <stop
         style="stop-color:#ffffff;stop-opacity:1;"
         offset="1"
         id="stop2" />
    </linearGradient>
    <linearGradient
       xlink:href="#linearGradient1"
       id="linearGradient2"
       x1="157.75999"
       y1="61.859463"
       x2="157.75999"
       y2="256.41943"
       gradientUnits="userSpaceOnUse" />
  </defs>
  <g
     id="g1">
    <path
       style="fill:url(#linearGradient2);fill-opacity:1"
       d="m 142.08,296.75484 c -5.37246,-0.41309 -16.63435,-1.83892 -19.68,-2.49161 -1.936,-0.41489 -4.7576,-0.9995 -6.27022,-1.29914 -3.37414,-0.66838 -3.95475,-0.96315 -2.77819,-1.41048 0.78566,-0.29871 2.50836,-1.07728 6.93978,-3.13644 0.95225,-0.44249 2.60825,-1.14076 3.68,-1.55172 1.07174,-0.41096 3.17263,-1.27366 4.66863,-1.91711 1.496,-0.64345 3.404,-1.39954 4.24,-1.6802 1.01814,-0.34181 1.52,-0.69014 1.52,-1.05498 0,-0.73991 -0.26811,-0.81246 -5.16612,-1.398 -2.35063,-0.28102 -5.06588,-0.64785 -6.03388,-0.81518 -3.15568,-0.54551 -16.7019,-2.2033 -20.8,-2.5455 -2.2,-0.18371 -6.16,-0.5517 -8.8,-0.81776 -2.64,-0.26606 -7.284,-0.57656 -10.32,-0.68999 -3.036,-0.11344 -5.52,-0.31303 -5.52,-0.44353 0,-0.13051 1.043796,-1.15212 2.319547,-2.27024 1.275751,-1.11813 2.507199,-2.21012 2.736552,-2.42665 1.046809,-0.9883 6.943961,-4.68802 9.983901,-6.26364 4.768191,-2.47139 13.10812,-5.22264 19.6137,-6.47034 0.83658,-0.16045 1.4775,-0.9278 1.09468,-1.31062 -0.26237,-0.26237 -4.50739,-1.32413 -8.06838,-2.01806 -12.671258,-2.46926 -28.499721,-2.1605 -41.03057,0.80035 -3.722838,0.87965 -3.92943,0.90295 -3.92943,0.44304 0,-0.66909 3.239346,-5.02154 5.825336,-7.82704 13.132039,-14.24672 31.325666,-22.12926 52.574664,-22.77841 14.93949,-0.45639 28.45084,2.24402 49.12,9.81725 13.53002,4.95743 17.58968,6.28663 21.92,7.177 12.31421,2.53195 23.19888,1.63601 32.30435,-2.65902 3.72912,-1.75902 5.34341,-3.0501 6.06331,-4.84931 0.45232,-1.13047 0.45931,-1.41498 0.0583,-2.37467 -0.50896,-1.21811 -1.9046,-2.09284 -3.33913,-2.09284 -0.51971,0 -2.36286,0.49143 -4.09589,1.09207 -10.98205,3.80618 -19.88378,4.21078 -31.47097,1.43041 -2.9045,-0.69694 -8.84555,-2.63822 -12,-3.92108 l -1.92,-0.78082 -0.25577,-3.79029 c -0.32655,-4.83935 -0.01,-15.74536 0.60197,-20.73351 0.5458,-4.44942 2.28403,-11.82176 3.67993,-15.60765 0.52951,-1.43612 2.03626,-4.68017 3.34831,-7.20901 1.31206,-2.52883 2.38556,-4.95653 2.38556,-5.39489 0,-1.04867 -0.81014,-2.58251 -1.58227,-2.99574 -0.33861,-0.18122 -1.31231,-0.32949 -2.16378,-0.32949 -1.95632,0 -3.28612,1.02445 -5.30226,4.08475 -3.57652,5.42882 -6.68553,13.11374 -8.18637,20.23525 -1.402,6.6525 -2.31596,20.30227 -1.73085,25.8497 0.15371,1.45733 0.21758,2.71159 0.14193,2.78723 -0.0756,0.0756 -0.53509,-0.068 -1.02098,-0.3193 -2.70117,-1.39683 -13.94738,-4.70917 -20.76594,-6.11619 l -0.77052,-0.15899 0.18664,-9.50123 c 0.10265,-5.22567 0.0847,-15.76522 -0.0398,-23.42122 -0.24236,-14.89725 -0.24537,-14.92304 -1.92004,-16.4386 -0.91565,-0.82865 -3.21033,-1.04163 -4.42957,-0.41114 -2.04156,1.05574 -1.98075,0.29124 -2.03745,25.61413 l -0.0514,22.97124 -0.68365,-0.20019 c -0.37601,-0.1101 -3.14588,-0.36108 -6.15527,-0.55774 l -5.47162,-0.35755 -0.21995,-15.55007 c -0.12097,-8.55255 -0.35973,-22.67808 -0.53059,-31.39008 -0.32939,-16.79615 -0.0686,-30.54966 0.78285,-41.28 0.82398,-10.38456 0.89794,-13.00728 0.38136,-13.52386 -0.58656,-0.58656 -2.69391,-0.73954 -18.75043,-1.36122 -7.128,-0.27599 -13.14,-0.56323 -13.36,-0.63831 -0.657375,-0.22437 -0.483441,-0.9605 1.386501,-5.86805 3.607266,-9.467048 4.562493,-12.851476 5.568222,-19.72856 1.350818,-9.236774 3.494637,-15.193248 7.394127,-20.544152 1.84312,-2.529134 6.50498,-7.094745 10.37115,-10.157021 4.0992,-3.246852 4.56559,-3.755904 8.92747,-9.744085 6.24676,-8.575815 12.21353,-18.836591 13.46478,-23.154742 0.29324,-1.012 0.65646,-1.84 0.80716,-1.84 0.9191,0 4.1814,5.69146 5.72676,9.990984 1.77978,4.95174 2.38721,8.227842 2.4788,13.369016 0.0814,4.572009 0.13546,4.967475 0.69057,5.055557 0.5737,0.09103 2.76815,-0.890393 12.54446,-5.610274 11.65072,-5.624821 20.96395,-11.813211 27.67644,-18.39024 1.40604,-1.377668 2.7136,-2.444542 2.90569,-2.370831 0.19209,0.07371 0.62569,1.623918 0.96356,3.444904 0.75231,4.054622 0.84769,13.602897 0.18012,18.030884 -1.61207,10.692857 -5.32797,19.544116 -10.97178,26.134734 -1.55826,1.819673 -1.81491,2.435228 -1.25137,3.001266 0.16646,0.1672 0.94414,1.6 1.72817,3.184 1.52274,3.076433 3.11347,7.957049 4.53694,13.92 2.19299,9.18655 4.86309,13.92689 11.56526,20.53229 5.08807,5.0146 7.56381,7.09597 19.72625,16.58398 5.60707,4.37411 13.13245,11.68765 17.18094,16.6973 6.1535,7.6144 11.34565,17.1201 14.54768,26.63362 3.7692,11.19864 5.2921,20.52119 5.2921,32.39609 0,5.30921 -0.69269,15.10531 -1.11661,15.79123 -0.0735,0.11895 -0.2927,1.21285 -0.48709,2.43088 -2.58732,16.21229 -11.02138,32.81071 -22.58846,44.45461 -9.48756,9.55057 -20.07152,16.46656 -32.95186,21.53208 -5.75999,2.26526 -8.45578,3.11157 -14.53598,4.56341 -10.19164,2.43357 -10.71587,2.52385 -19.52,3.3619 -4.97245,0.47332 -18.45949,0.83123 -21.76,0.57745 z M 132.92048,89.480079 c 1.89835,-1.112507 3.8967,-3.491026 4.68146,-5.572083 0.66221,-1.756055 0.85404,-4.991374 0.34374,-5.797408 -0.41481,-0.655196 -3.71192,-1.031312 -5.78568,-0.659998 -0.968,0.173323 -2.50918,0.681098 -3.42484,1.128388 -4.76442,2.327372 -7.21934,8.843407 -4.10143,10.886342 2.05934,1.349331 5.9975,1.356346 8.28675,0.01476 z"
       id="path1" />
  </g>
</svg>
